<svg viewBox="0 0 32 32" xmlns="http://www.w3.org/2000/svg">
  <!-- Background circle -->
  <circle cx="16" cy="16" r="15" fill="#2E7D32" stroke="#1B5E20" stroke-width="1"/>
  
  <!-- Pipe horizontal segment -->
  <rect x="4" y="11" width="12" height="4" fill="#90CAF9" stroke="#1976D2" stroke-width="0.5" rx="0.5"/>
  
  <!-- Elbow joint -->
  <path d="M 16 11 L 16 15 L 16 15 A 4 4 0 0 0 20 19 L 20 19 L 20 24 L 16 24 L 16 19 A 4 4 0 0 1 12 15 L 12 15 L 16 15 Z" 
        fill="#90CAF9" stroke="#1976D2" stroke-width="0.5"/>
  
  <!-- Pipe vertical segment -->
  <rect x="16" y="19" width="4" height="9" fill="#90CAF9" stroke="#1976D2" stroke-width="0.5" rx="0.5"/>
  
  <!-- Measurement ruler indicator -->
  <line x1="6" y1="8" x2="14" y2="8" stroke="#FFD54F" stroke-width="1.5" stroke-linecap="round"/>
  <line x1="6" y1="7" x2="6" y2="9" stroke="#FFD54F" stroke-width="1" stroke-linecap="round"/>
  <line x1="14" y1="7" x2="14" y2="9" stroke="#FFD54F" stroke-width="1" stroke-linecap="round"/>
  
  <!-- Number counter indicator -->
  <circle cx="24" cy="8" r="4" fill="#FF6B6B" stroke="#C62828" stroke-width="0.5"/>
  <text x="24" y="10" font-family="Arial, sans-serif" font-size="4.5" font-weight="bold" fill="white" text-anchor="middle">PL</text>
</svg>